


<svg   xmlns="http://www.w3.org/2000/svg" style="display:none;">
    <defs>
        <symbol id="star-favorite" viewBox="0 0 24 24"> 
        <path d="M5.8 21L7.4 14L2 9.2L9.2 8.6L12 2L14.8 8.6L22 9.2L18.8 12H18C17.3 12 16.6 12.1 15.9 12.4L18.1 10.5L13.7 10.1L12 6.1L10.3 10.1L5.9 10.5L9.2 13.4L8.2 17.7L12 15.4L12.5 15.7C12.3 16.2 12.1 16.8 12.1 17.3L5.8 21M17 14V17H14V19H17V22H19V19H22V17H19V14H17Z" />
        </symbol>
    </defs>

    <defs>
        <symbol id="dashboard" viewBox="0 0 24 24"> 
        <path d="M13,3V9H21V3M13,21H21V11H13M3,21H11V15H3M3,13H11V3H3V13Z" />
        </symbol>
    </defs>
    
    <defs>
        <symbol id="home-heart" viewBox="0 0 24 24"> 
        <path d="M2,12L12,3L22,12H19V20H5V12H2M12,18L12.72,17.34C15.3,15 17,13.46 17,11.57C17,10.03 15.79,8.82 14.25,8.82C13.38,8.82 12.55,9.23 12,9.87C11.45,9.23 10.62,8.82 9.75,8.82C8.21,8.82 7,10.03 7,11.57C7,13.46 8.7,15 11.28,17.34L12,18Z" />
        </symbol>
    </defs>
    <defs>
        <symbol id="card-account" viewBox="0 0 24 24"> 
        <path  d="M2,3H22C23.05,3 24,3.95 24,5V19C24,20.05 23.05,21 22,21H2C0.95,21 0,20.05 0,19V5C0,3.95 0.95,3 2,3M14,6V7H22V6H14M14,8V9H21.5L22,9V8H14M14,10V11H21V10H14M8,13.91C6,13.91 2,15 2,17V18H14V17C14,15 10,13.91 8,13.91M8,6A3,3 0 0,0 5,9A3,3 0 0,0 8,12A3,3 0 0,0 11,9A3,3 0 0,0 8,6Z" />
        </symbol>
    </defs>

    <defs>
        <symbol id="messages" viewBox="0 0 24 24"> 
        <path d="M20,2H4A2,2 0 0,0 2,4V22L6,18H20A2,2 0 0,0 22,16V4C22,2.89 21.1,2 20,2Z" />
        </symbol>
    </defs>
    <defs>
        <symbol id="history" viewBox="0 0 24 24"> 
        <path  d="M13.5,8H12V13L16.28,15.54L17,14.33L13.5,12.25V8M13,3A9,9 0 0,0 4,12H1L4.96,16.03L9,12H6A7,7 0 0,1 13,5A7,7 0 0,1 20,12A7,7 0 0,1 13,19C11.07,19 9.32,18.21 8.06,16.94L6.64,18.36C8.27,20 10.5,21 13,21A9,9 0 0,0 22,12A9,9 0 0,0 13,3" />
        </symbol>
    </defs>

    <defs>
        <symbol id="tasks" viewBox="0 0 24 24"> 
        <path d="M3,5H9V11H3V5M5,7V9H7V7H5M11,7H21V9H11V7M11,15H21V17H11V15M5,20L1.5,16.5L2.91,15.09L5,17.17L9.59,12.59L11,14L5,20Z" />
        </symbol>
    </defs>
    <defs>
        <symbol id="communities" viewBox="0 0 24 24"> 
        <path  d="M12,5A3.5,3.5 0 0,0 8.5,8.5A3.5,3.5 0 0,0 12,12A3.5,3.5 0 0,0 15.5,8.5A3.5,3.5 0 0,0 12,5M12,7A1.5,1.5 0 0,1 13.5,8.5A1.5,1.5 0 0,1 12,10A1.5,1.5 0 0,1 10.5,8.5A1.5,1.5 0 0,1 12,7M5.5,8A2.5,2.5 0 0,0 3,10.5C3,11.44 3.53,12.25 4.29,12.68C4.65,12.88 5.06,13 5.5,13C5.94,13 6.35,12.88 6.71,12.68C7.08,12.47 7.39,12.17 7.62,11.81C6.89,10.86 6.5,9.7 6.5,8.5C6.5,8.41 6.5,8.31 6.5,8.22C6.2,8.08 5.86,8 5.5,8M18.5,8C18.14,8 17.8,8.08 17.5,8.22C17.5,8.31 17.5,8.41 17.5,8.5C17.5,9.7 17.11,10.86 16.38,11.81C16.5,12 16.63,12.15 16.78,12.3C16.94,12.45 17.1,12.58 17.29,12.68C17.65,12.88 18.06,13 18.5,13C18.94,13 19.35,12.88 19.71,12.68C20.47,12.25 21,11.44 21,10.5A2.5,2.5 0 0,0 18.5,8M12,14C9.66,14 5,15.17 5,17.5V19H19V17.5C19,15.17 14.34,14 12,14M4.71,14.55C2.78,14.78 0,15.76 0,17.5V19H3V17.07C3,16.06 3.69,15.22 4.71,14.55M19.29,14.55C20.31,15.22 21,16.06 21,17.07V19H24V17.5C24,15.76 21.22,14.78 19.29,14.55M12,16C13.53,16 15.24,16.5 16.23,17H7.77C8.76,16.5 10.47,16 12,16Z" />
        </symbol>
    </defs>
    <defs>
        <symbol id="settings" viewBox="0 0 24 24"> 
        <path  d="M15.9,18.45C17.25,18.45 18.35,17.35 18.35,16C18.35,14.65 17.25,13.55 15.9,13.55C14.54,13.55 13.45,14.65 13.45,16C13.45,17.35 14.54,18.45 15.9,18.45M21.1,16.68L22.58,17.84C22.71,17.95 22.75,18.13 22.66,18.29L21.26,20.71C21.17,20.86 21,20.92 20.83,20.86L19.09,20.16C18.73,20.44 18.33,20.67 17.91,20.85L17.64,22.7C17.62,22.87 17.47,23 17.3,23H14.5C14.32,23 14.18,22.87 14.15,22.7L13.89,20.85C13.46,20.67 13.07,20.44 12.71,20.16L10.96,20.86C10.81,20.92 10.62,20.86 10.54,20.71L9.14,18.29C9.05,18.13 9.09,17.95 9.22,17.84L10.7,16.68L10.65,16L10.7,15.31L9.22,14.16C9.09,14.05 9.05,13.86 9.14,13.71L10.54,11.29C10.62,11.13 10.81,11.07 10.96,11.13L12.71,11.84C13.07,11.56 13.46,11.32 13.89,11.15L14.15,9.29C14.18,9.13 14.32,9 14.5,9H17.3C17.47,9 17.62,9.13 17.64,9.29L17.91,11.15C18.33,11.32 18.73,11.56 19.09,11.84L20.83,11.13C21,11.07 21.17,11.13 21.26,11.29L22.66,13.71C22.75,13.86 22.71,14.05 22.58,14.16L21.1,15.31L21.15,16L21.1,16.68M6.69,8.07C7.56,8.07 8.26,7.37 8.26,6.5C8.26,5.63 7.56,4.92 6.69,4.92A1.58,1.58 0 0,0 5.11,6.5C5.11,7.37 5.82,8.07 6.69,8.07M10.03,6.94L11,7.68C11.07,7.75 11.09,7.87 11.03,7.97L10.13,9.53C10.08,9.63 9.96,9.67 9.86,9.63L8.74,9.18L8,9.62L7.81,10.81C7.79,10.92 7.7,11 7.59,11H5.79C5.67,11 5.58,10.92 5.56,10.81L5.4,9.62L4.64,9.18L3.5,9.63C3.41,9.67 3.3,9.63 3.24,9.53L2.34,7.97C2.28,7.87 2.31,7.75 2.39,7.68L3.34,6.94L3.31,6.5L3.34,6.06L2.39,5.32C2.31,5.25 2.28,5.13 2.34,5.03L3.24,3.47C3.3,3.37 3.41,3.33 3.5,3.37L4.63,3.82L5.4,3.38L5.56,2.19C5.58,2.08 5.67,2 5.79,2H7.59C7.7,2 7.79,2.08 7.81,2.19L8,3.38L8.74,3.82L9.86,3.37C9.96,3.33 10.08,3.37 10.13,3.47L11.03,5.03C11.09,5.13 11.07,5.25 11,5.32L10.03,6.06L10.06,6.5L10.03,6.94Z" />
        </symbol>
    </defs>
    <defs>
        <symbol id="support" viewBox="0 0 24 24"> 
        <path  d="M18.72,14.76C19.07,13.91 19.26,13 19.26,12C19.26,11.28 19.15,10.59 18.96,9.95C18.31,10.1 17.63,10.18 16.92,10.18C13.86,10.18 11.15,8.67 9.5,6.34C8.61,8.5 6.91,10.26 4.77,11.22C4.73,11.47 4.73,11.74 4.73,12A7.27,7.27 0 0,0 12,19.27C13.05,19.27 14.06,19.04 14.97,18.63C15.54,19.72 15.8,20.26 15.78,20.26C14.14,20.81 12.87,21.08 12,21.08C9.58,21.08 7.27,20.13 5.57,18.42C4.53,17.38 3.76,16.11 3.33,14.73H2V10.18H3.09C3.93,6.04 7.6,2.92 12,2.92C14.4,2.92 16.71,3.87 18.42,5.58C19.69,6.84 20.54,8.45 20.89,10.18H22V14.67H22V14.69L22,14.73H21.94L18.38,18L13.08,17.4V15.73H17.91L18.72,14.76M9.27,11.77C9.57,11.77 9.86,11.89 10.07,12.11C10.28,12.32 10.4,12.61 10.4,12.91C10.4,13.21 10.28,13.5 10.07,13.71C9.86,13.92 9.57,14.04 9.27,14.04C8.64,14.04 8.13,13.54 8.13,12.91C8.13,12.28 8.64,11.77 9.27,11.77M14.72,11.77C15.35,11.77 15.85,12.28 15.85,12.91C15.85,13.54 15.35,14.04 14.72,14.04C14.09,14.04 13.58,13.54 13.58,12.91A1.14,1.14 0 0,1 14.72,11.77Z" />
        </symbol>
    </defs>
    <defs>
        <symbol id="privacy" viewBox="0 0 24 24"> 
        <path fill="currentColor" d="M17.06 13C15.2 13 13.64 14.33 13.24 16.1C12.29 15.69 11.42 15.8 10.76 16.09C10.35 14.31 8.79 13 6.94 13C4.77 13 3 14.79 3 17C3 19.21 4.77 21 6.94 21C9 21 10.68 19.38 10.84 17.32C11.18 17.08 12.07 16.63 13.16 17.34C13.34 19.39 15 21 17.06 21C19.23 21 21 19.21 21 17C21 14.79 19.23 13 17.06 13M6.94 19.86C5.38 19.86 4.13 18.58 4.13 17S5.39 14.14 6.94 14.14C8.5 14.14 9.75 15.42 9.75 17S8.5 19.86 6.94 19.86M17.06 19.86C15.5 19.86 14.25 18.58 14.25 17S15.5 14.14 17.06 14.14C18.62 14.14 19.88 15.42 19.88 17S18.61 19.86 17.06 19.86M22 10.5H2V12H22V10.5M15.53 2.63C15.31 2.14 14.75 1.88 14.22 2.05L12 2.79L9.77 2.05L9.72 2.04C9.19 1.89 8.63 2.17 8.43 2.68L6 9H18L15.56 2.68L15.53 2.63Z" />
        </symbol>
    </defs>
    <defs>
        <symbol id="eye" viewBox="0 0 24 24"> 
        <path d="M12,4.5C7,4.5 2.73,7.61 1,12C2.73,16.39 7,19.5 12,19.5C12.36,19.5 12.72,19.5 13.08,19.45C13.03,19.13 13,18.82 13,18.5C13,18.14 13.04,17.78 13.1,17.42C12.74,17.46 12.37,17.5 12,17.5C8.24,17.5 4.83,15.36 3.18,12C4.83,8.64 8.24,6.5 12,6.5C15.76,6.5 19.17,8.64 20.82,12C20.7,12.24 20.56,12.45 20.43,12.68C21.09,12.84 21.72,13.11 22.29,13.5C22.56,13 22.8,12.5 23,12C21.27,7.61 17,4.5 12,4.5M12,9A3,3 0 0,0 9,12A3,3 0 0,0 12,15A3,3 0 0,0 15,12A3,3 0 0,0 12,9M18,14.5V17.5H15V19.5H18V22.5H20V19.5H23V17.5H20V14.5H18Z" />
        </symbol>
    </defs>
    <defs>
        <symbol id="share" viewBox="0 0 24 24"> 
        <path d="M18 16.08C17.24 16.08 16.56 16.38 16.04 16.85L8.91 12.7C8.96 12.47 9 12.24 9 12S8.96 11.53 8.91 11.3L15.96 7.19C16.5 7.69 17.21 8 18 8C19.66 8 21 6.66 21 5S19.66 2 18 2 15 3.34 15 5C15 5.24 15.04 5.47 15.09 5.7L8.04 9.81C7.5 9.31 6.79 9 6 9C4.34 9 3 10.34 3 12S4.34 15 6 15C6.79 15 7.5 14.69 8.04 14.19L15.16 18.34C15.11 18.55 15.08 18.77 15.08 19C15.08 20.61 16.39 21.91 18 21.91S20.92 20.61 20.92 19C20.92 17.39 19.61 16.08 18 16.08M18 4C18.55 4 19 4.45 19 5S18.55 6 18 6 17 5.55 17 5 17.45 4 18 4M6 13C5.45 13 5 12.55 5 12S5.45 11 6 11 7 11.45 7 12 6.55 13 6 13M18 20C17.45 20 17 19.55 17 19S17.45 18 18 18 19 18.45 19 19 18.55 20 18 20Z" />
        </symbol>
    </defs>
</svg>



